<svg xmlns="http://www.w3.org/2000/svg" xmlns:xlink="http://www.w3.org/1999/xlink" width="375" height="812" viewBox="0 0 375 812">
  <defs>
    <clipPath id="clip-path">
      <rect id="Rettangolo_1" data-name="Rettangolo 1" width="375" height="812" fill="none"/>
    </clipPath>
    <linearGradient id="linear-gradient" x1="0.693" x2="0.249" y2="1" gradientUnits="objectBoundingBox">
      <stop offset="0" stop-color="#ffb891"/>
      <stop offset="1" stop-color="#ff7a33"/>
    </linearGradient>
  </defs>
  <g id="Gruppo_di_maschere_1" data-name="Gruppo di maschere 1" clip-path="url(#clip-path)">
    <g id="Raggruppa_1" data-name="Raggruppa 1">
      <path id="Poligono_2" data-name="Poligono 2" d="M56,0l56,97H0Z" transform="translate(4.1 18.153) rotate(21)" fill="#ff8f53"/>
      <path id="Poligono_1" data-name="Poligono 1" d="M56,0l56,97H0Z" transform="translate(-8.9 0.153) rotate(21)" fill="#ff7a33"/>
      <circle id="Ellisse_1" data-name="Ellisse 1" cx="52" cy="52" r="52" transform="translate(284 266)" fill="url(#linear-gradient)"/>
      <path id="Tracciato_1" data-name="Tracciato 1" d="M-59.218,794.107s50.2,5.236,135.27-124.939,110.3,62.39,110.3,62.39,14.952,88.076,80.545,6.459,114.522,34.111,114.522,34.111l26.958,91.534L-38.3,841.3Z" transform="translate(1 9)" fill="#ff7a33"/>
      <path id="Tracciato_2" data-name="Tracciato 2" d="M234.569,165.785s.07-19.881,18.4-16.426,19.024-13.508,19.024-13.508,1.439-17.777,22.92-12.169" fill="none" stroke="#ff7a33" stroke-width="6"/>
    </g>
  </g>
</svg>
